<mxfile host="drawio-plugin" modified="2024-03-18T18:03:37.707Z" agent="5.0 (Macintosh; Intel Mac OS X 10_15_7) AppleWebKit/537.36 (KHTML, like Gecko) Chrome/111.0.0.0 Safari/537.36" etag="MVnNAfjsazChlm_-uBpF" version="20.5.3" type="embed"><diagram id="23iRSUPoRavnBvh4doch" name="Page-1"><mxGraphModel dx="531" dy="615" grid="1" gridSize="10" guides="1" tooltips="1" connect="1" arrows="1" fold="1" page="1" pageScale="1" pageWidth="827" pageHeight="1169" math="0" shadow="0"><root><mxCell id="0"/><mxCell id="1" parent="0"/><mxCell id="9" style="edgeStyle=orthogonalEdgeStyle;rounded=0;orthogonalLoop=1;jettySize=auto;html=1;fontFamily=Courier New;fontSize=16;endArrow=none;endFill=0;" parent="1" source="5" target="8" edge="1"><mxGeometry relative="1" as="geometry"><Array as="points"><mxPoint x="160" y="240"/><mxPoint x="160" y="240"/></Array></mxGeometry></mxCell><mxCell id="5" value="Sender" style="text;html=1;align=center;verticalAlign=middle;resizable=0;points=[];autosize=1;strokeColor=#666666;fillColor=#f5f5f5;fontSize=16;fontFamily=Courier New;fontColor=#333333;fontStyle=1" parent="1" vertex="1"><mxGeometry x="120" y="150" width="80" height="30" as="geometry"/></mxCell><mxCell id="11" style="edgeStyle=orthogonalEdgeStyle;rounded=0;orthogonalLoop=1;jettySize=auto;html=1;fontFamily=Courier New;fontSize=16;endArrow=none;endFill=0;" parent="1" source="6" target="10" edge="1"><mxGeometry relative="1" as="geometry"/></mxCell><mxCell id="6" value="Receiver" style="text;html=1;align=center;verticalAlign=middle;resizable=0;points=[];autosize=1;strokeColor=#666666;fillColor=#f5f5f5;fontSize=16;fontFamily=Courier New;fontColor=#333333;fontStyle=1" parent="1" vertex="1"><mxGeometry x="350" y="150" width="100" height="30" as="geometry"/></mxCell><mxCell id="8" value="Sender" style="text;html=1;align=center;verticalAlign=middle;resizable=0;points=[];autosize=1;strokeColor=#666666;fillColor=#f5f5f5;fontSize=16;fontFamily=Courier New;fontColor=#333333;fontStyle=1" parent="1" vertex="1"><mxGeometry x="120" y="509" width="80" height="30" as="geometry"/></mxCell><mxCell id="10" value="Receiver" style="text;html=1;align=center;verticalAlign=middle;resizable=0;points=[];autosize=1;strokeColor=#666666;fillColor=#f5f5f5;fontSize=16;fontFamily=Courier New;fontColor=#333333;fontStyle=1" parent="1" vertex="1"><mxGeometry x="350" y="509" width="100" height="30" as="geometry"/></mxCell><mxCell id="13" value="" style="endArrow=classic;html=1;rounded=0;fontFamily=Courier New;fontSize=16;startArrow=oval;startFill=1;" parent="1" edge="1"><mxGeometry width="50" height="50" relative="1" as="geometry"><mxPoint x="160" y="210" as="sourcePoint"/><mxPoint x="400" y="240" as="targetPoint"/></mxGeometry></mxCell><mxCell id="14" value="I want to leave." style="edgeLabel;align=center;verticalAlign=middle;resizable=0;points=[];fontSize=14;fontFamily=Courier New;html=1;rotation=7;fontStyle=1;labelBackgroundColor=none;" parent="13" vertex="1" connectable="0"><mxGeometry x="-0.0768" y="-1" relative="1" as="geometry"><mxPoint x="5" y="-10" as="offset"/></mxGeometry></mxCell><mxCell id="15" value="" style="endArrow=classic;html=1;rounded=0;fontFamily=Courier New;fontSize=16;startArrow=oval;startFill=1;" parent="1" edge="1"><mxGeometry width="50" height="50" relative="1" as="geometry"><mxPoint x="400" y="280" as="sourcePoint"/><mxPoint x="160" y="310" as="targetPoint"/></mxGeometry></mxCell><mxCell id="16" value="Okay, wait a minute." style="edgeLabel;align=center;verticalAlign=middle;resizable=0;points=[];fontSize=14;fontFamily=Courier New;html=1;rotation=353;fontStyle=1;labelBackgroundColor=none;" parent="15" vertex="1" connectable="0"><mxGeometry x="-0.0768" y="-1" relative="1" as="geometry"><mxPoint x="-11" y="-7" as="offset"/></mxGeometry></mxCell><mxCell id="17" value="" style="endArrow=classic;html=1;rounded=0;fontFamily=Courier New;fontSize=16;startArrow=oval;startFill=1;sketch=0;" parent="1" edge="1"><mxGeometry width="50" height="50" relative="1" as="geometry"><mxPoint x="160" y="410" as="sourcePoint"/><mxPoint x="400" y="440" as="targetPoint"/></mxGeometry></mxCell><mxCell id="18" value="Okay, goodbye." style="edgeLabel;align=center;verticalAlign=middle;resizable=0;points=[];fontSize=14;fontFamily=Courier New;html=1;rotation=7;fontStyle=1;labelBackgroundColor=none;" parent="17" vertex="1" connectable="0"><mxGeometry x="-0.0768" y="-1" relative="1" as="geometry"><mxPoint x="5" y="-10" as="offset"/></mxGeometry></mxCell><mxCell id="20" value="" style="endArrow=none;dashed=1;html=1;rounded=0;fontFamily=Courier New;fontSize=14;strokeWidth=1;sketch=1;shadow=0;" parent="1" edge="1"><mxGeometry width="50" height="50" relative="1" as="geometry"><mxPoint x="137" y="472" as="sourcePoint"/><mxPoint x="420" y="472" as="targetPoint"/></mxGeometry></mxCell><mxCell id="21" value="&lt;b&gt;Connection closed.&lt;/b&gt;" style="edgeLabel;html=1;align=center;verticalAlign=middle;resizable=0;points=[];fontSize=14;fontFamily=Courier New;labelBackgroundColor=none;" parent="20" vertex="1" connectable="0"><mxGeometry x="-0.384" y="-1" relative="1" as="geometry"><mxPoint x="57" y="7" as="offset"/></mxGeometry></mxCell><mxCell id="22" value="" style="endArrow=classic;html=1;rounded=0;fontFamily=Courier New;fontSize=16;startArrow=oval;startFill=1;" edge="1" parent="1"><mxGeometry width="50" height="50" relative="1" as="geometry"><mxPoint x="400" y="330" as="sourcePoint"/><mxPoint x="160" y="360" as="targetPoint"/></mxGeometry></mxCell><mxCell id="23" value="Let's say goodbye." style="edgeLabel;align=center;verticalAlign=middle;resizable=0;points=[];fontSize=14;fontFamily=Courier New;html=1;rotation=353;fontStyle=1;labelBackgroundColor=none;" vertex="1" connectable="0" parent="22"><mxGeometry x="-0.0768" y="-1" relative="1" as="geometry"><mxPoint x="-11" y="-7" as="offset"/></mxGeometry></mxCell></root></mxGraphModel></diagram></mxfile>